<?xml version="1.0" standalone="no"?>
<!DOCTYPE svg PUBLIC "-//W3C//DTD SVG 20010904//EN"
 "http://www.w3.org/TR/2001/REC-SVG-20010904/DTD/svg10.dtd">
<svg version="1.0" xmlns="http://www.w3.org/2000/svg"
 width="450.000000pt" height="450.000000pt" viewBox="0 0 450.000000 450.000000"
 preserveAspectRatio="xMidYMid meet">

<g transform="translate(0.000000,450.000000) scale(0.100000,-0.100000)"
fill="#000000" stroke="none">
<path d="M3592 3743 c37 -2 100 -2 140 0 40 1 10 3 -67 3 -77 0 -110 -1 -73
-3z"/>
<path d="M3592 3573 c37 -2 100 -2 140 0 40 1 10 3 -67 3 -77 0 -110 -1 -73
-3z"/>
<path d="M3363 3493 c81 -2 213 -2 295 0 81 1 14 3 -148 3 -162 0 -229 -2
-147 -3z"/>
<path d="M2622 3483 c37 -2 100 -2 140 0 40 1 10 3 -67 3 -77 0 -110 -1 -73
-3z"/>
<path d="M1983 3473 c43 -2 110 -2 150 0 40 1 5 3 -78 3 -82 0 -115 -2 -72 -3z"/>
<path d="M1393 3463 c43 -2 110 -2 150 0 40 1 5 3 -78 3 -82 0 -115 -2 -72 -3z"/>
<path d="M828 3453 c34 -2 88 -2 120 0 31 2 3 3 -63 3 -66 0 -92 -1 -57 -3z"/>
<path d="M2173 3273 c31 -2 83 -2 115 0 31 2 5 3 -58 3 -63 0 -89 -1 -57 -3z"/>
<path d="M2888 3273 c46 -2 118 -2 160 0 42 1 5 3 -83 3 -88 0 -123 -2 -77 -3z"/>
<path d="M3687 3263 c18 -2 50 -2 70 0 21 2 7 4 -32 4 -38 0 -55 -2 -38 -4z"/>
<path d="M1490 3073 c-39 -61 -121 -128 -206 -168 -53 -25 -57 -26 -89 -11
-66 32 -91 31 -125 -2 -47 -47 -36 -112 33 -188 34 -39 34 -40 57 -226 l23
-188 153 0 153 0 -4 33 c-3 17 -9 64 -15 104 -14 103 -15 102 35 123 67 29
132 93 140 138 10 64 -38 254 -102 399 l-18 40 -35 -54z m-52 -374 c18 -21 42
-34 68 -39 30 -5 35 -9 21 -15 -26 -11 -66 3 -98 35 -26 26 -38 50 -24 50 3 0
18 -14 33 -31z"/>
<path d="M3720 2922 c0 -5 -9 -73 -20 -152 -27 -192 -28 -180 20 -180 33 0 40
4 45 23 14 62 35 218 35 265 l0 52 -40 0 c-22 0 -40 -4 -40 -8z"/>
<path d="M2055 2900 c-11 -4 -40 -29 -65 -54 l-44 -46 32 -32 31 -32 26 24 25
23 0 -76 0 -77 105 0 105 0 0 77 c0 73 1 75 18 60 17 -16 20 -15 47 13 l29 30
-49 50 c-39 39 -56 50 -81 50 -23 0 -33 -5 -37 -20 -4 -15 -14 -20 -40 -20
-27 0 -37 5 -42 20 -7 21 -27 24 -60 10z"/>
<path d="M3060 2833 c-25 -21 -119 -153 -176 -249 -10 -17 -13 -15 -28 21 -34
81 -80 101 -92 40 -3 -19 -4 -50 -2 -70 3 -28 0 -35 -17 -38 -17 -4 -17 -4 4
-6 22 -1 23 -4 18 -41 -3 -24 -1 -41 7 -44 8 -3 7 -7 -3 -14 -10 -8 -11 -10 0
-14 9 -3 10 -11 1 -35 l-10 -31 59 -22 c33 -13 62 -27 65 -31 8 -14 -10 -11
-71 13 -48 18 -58 19 -66 7 -14 -22 -12 -24 46 -43 30 -9 55 -21 55 -27 0 -12
2 -12 -53 7 -26 9 -53 14 -60 11 -6 -2 -73 -159 -147 -348 l-135 -344 -110
-111 c-60 -61 -140 -133 -176 -160 l-67 -50 32 -45 c97 -133 265 -212 382
-180 61 16 130 67 185 135 58 72 174 302 220 434 l32 92 171 2 171 2 -167 3
c-93 2 -168 5 -168 7 0 1 22 76 50 167 27 90 50 169 50 176 0 6 -18 34 -40 62
-48 61 -37 69 14 10 29 -34 37 -39 42 -25 6 17 -9 45 -45 83 -12 12 -21 28
-21 35 1 7 18 -6 39 -29 l38 -43 34 88 c28 71 34 101 34 162 0 62 -4 80 -23
107 l-23 32 93 4 93 3 -92 2 c-74 2 -93 5 -93 17 0 8 -10 23 -22 34 l-21 21
26 87 c44 141 31 191 -33 136z"/>
<path d="M2017 2533 c79 -2 207 -2 285 0 79 1 15 3 -142 3 -157 0 -221 -2
-143 -3z"/>
<path d="M3643 2533 c26 -2 68 -2 95 0 26 2 4 3 -48 3 -52 0 -74 -1 -47 -3z"/>
<path d="M1915 2469 c-4 -6 -5 -12 -2 -15 2 -3 7 2 10 11 7 17 1 20 -8 4z"/>
<path d="M3635 2470 c-4 -6 -2 -17 5 -24 8 -11 8 -15 -2 -19 -9 -4 -9 -6 -1
-6 18 -1 27 20 13 29 -7 4 -9 13 -6 19 4 6 5 11 2 11 -3 0 -8 -5 -11 -10z"/>
<path d="M1922 2434 c-7 -8 -8 -14 -3 -14 10 0 25 19 20 25 -2 1 -10 -3 -17
-11z"/>
<path d="M2388 1693 c12 -2 30 -2 40 0 9 3 -1 5 -23 4 -22 0 -30 -2 -17 -4z"/>
<path d="M3643 1693 c26 -2 68 -2 95 0 26 2 4 3 -48 3 -52 0 -74 -1 -47 -3z"/>
<path d="M3636 1635 c-9 -26 -7 -32 5 -12 6 10 9 21 6 23 -2 3 -7 -2 -11 -11z"/>
<path d="M827 1353 c-15 -115 -27 -228 -26 -253 1 -32 3 -36 6 -15 10 82 54
433 57 453 2 12 0 22 -3 22 -3 0 -19 -93 -34 -207z"/>
<path d="M3033 1218 c-20 -19 -22 -19 -44 -4 -40 27 -75 20 -124 -25 -50 -47
-58 -79 -23 -103 20 -14 24 -14 45 -1 l23 15 0 -75 0 -75 105 0 105 0 0 75 0
75 25 -6 c29 -7 55 10 55 35 0 25 -81 98 -116 104 -23 4 -36 1 -51 -15z"/>
<path d="M520 1078 c1 -88 60 -166 143 -189 43 -11 103 -7 120 10 5 5 12 41
15 79 l5 70 -67 11 c-36 6 -98 23 -138 36 -40 14 -74 25 -75 25 -2 0 -3 -19
-3 -42z"/>
<path d="M2766 795 c-9 -26 -7 -32 5 -12 6 10 9 21 6 23 -2 3 -7 -2 -11 -11z"/>
<path d="M3636 795 c-9 -26 -7 -32 5 -12 6 10 9 21 6 23 -2 3 -7 -2 -11 -11z"/>
<path d="M2013 793 c9 -2 23 -2 30 0 6 3 -1 5 -18 5 -16 0 -22 -2 -12 -5z"/>
<path d="M2848 793 c12 -2 30 -2 40 0 9 3 -1 5 -23 4 -22 0 -30 -2 -17 -4z"/>
<path d="M3718 793 c12 -2 30 -2 40 0 9 3 -1 5 -23 4 -22 0 -30 -2 -17 -4z"/>
<path d="M2028 753 c7 -3 16 -2 19 1 4 3 -2 6 -13 5 -11 0 -14 -3 -6 -6z"/>
<path d="M2868 753 c6 -2 18 -2 25 0 6 3 1 5 -13 5 -14 0 -19 -2 -12 -5z"/>
<path d="M3738 753 c6 -2 18 -2 25 0 6 3 1 5 -13 5 -14 0 -19 -2 -12 -5z"/>
</g>
</svg>
